<svg width="96" height="96" viewBox="0 0 435 442" fill="none" xmlns="http://www.w3.org/2000/svg">
<rect width="435" height="442" fill="#F5F5F5"/>
<rect width="435" height="442" fill="#D37315"/>
<path d="M88.5 46.4L140.3 39.4L115.45 156.3C126.65 155.367 136.917 150.467 146.25 141.6C155.817 132.733 163.283 121.767 168.65 108.7C174.017 95.6333 176.7 82.8 176.7 70.2C176.7 56.2 173.083 44.7667 165.85 35.9C158.617 27.0333 147.767 22.6 133.3 22.6C104.833 22.6 82.55 30.0666 66.45 45C50.5833 59.9333 42.65 80.8167 42.65 107.65C42.65 116.283 43.4667 122.35 45.1 125.85C46.7333 129.117 47.55 130.983 47.55 131.45C34.95 131.45 25.5 128.883 19.2 123.75C13.1333 118.383 10.1 109.633 10.1 97.5C10.1 82.5667 16.1667 68.1 28.3 54.1C40.6667 39.8667 56.4167 28.4333 75.55 19.8C94.6833 10.9333 113.817 6.49998 132.95 6.49998C151.383 6.49998 166.783 9.64998 179.15 15.95C191.517 22.25 200.617 30.65 206.45 41.15C212.517 51.4167 215.55 62.85 215.55 75.45C215.55 90.6167 211.35 105.433 202.95 119.9C194.783 134.367 183 146.267 167.6 155.6C152.2 164.7 134.467 169.25 114.4 169.25H112.65L91.3 269H40.9L88.5 46.4Z" fill="black"/>
<path d="M300.7 431C291.7 431 282.8 428.4 274 423.2C265.4 418.2 254.4 410.4 241 399.8C231 391.8 222.4 385.3 215.2 380.3C208.2 375.5 200.5 371.4 192.1 368C183.9 364.6 175.5 362.9 166.9 362.9C163.9 362.9 161.6 363 160 363.2L204.7 155.3C191.3 160.7 180.9 169 173.5 180.2C166.3 191.2 162.7 204.7 162.7 220.7C162.7 228.1 163.4 233.3 164.8 236.3C166.2 239.1 166.9 240.7 166.9 241.1C156.1 241.1 148 238.9 142.6 234.5C137.4 229.9 134.8 222.4 134.8 212C134.8 199.2 140 186.8 150.4 174.8C161 162.6 174.5 152.8 190.9 145.4C207.3 137.8 223.7 134 240.1 134C242.9 134 246.9 134.2 252.1 134.6L205.9 350C211.5 351.4 217.2 353.4 223 356C229 358.8 236.2 362.5 244.6 367.1C257.6 374.1 268.7 379.4 277.9 383C287.1 386.8 296.7 388.7 306.7 388.7C315.7 388.7 324.1 387.1 331.9 383.9C330.3 398.5 326.7 410 321.1 418.4C315.7 426.8 308.9 431 300.7 431Z" fill="black"/>
</svg>
